<mxfile host="app.diagrams.net" modified="2023-08-15T14:01:53.299Z" agent="Mozilla/5.0 (Macintosh; Intel Mac OS X 10_15_7) AppleWebKit/537.36 (KHTML, like Gecko) Chrome/115.0.0.0 Safari/537.36" version="21.6.8" etag="1x3GYDtPXqgRRIenZGLJ" type="github">
  <diagram name="Страница — 1" id="rRyIwpv4pDShuvJddAZr">
    <mxGraphModel>
      <root>
        <mxCell id="0" />
        <mxCell id="1" parent="0" />
      </root>
    </mxGraphModel>
  </diagram>
</mxfile>
